<?xml version="1.0" encoding="UTF-8"?><svg id="Layer_1" xmlns="http://www.w3.org/2000/svg" xmlns:xlink="http://www.w3.org/1999/xlink" viewBox="0 0 91.89 91.89"><defs><style>.cls-1{fill:none;}.cls-2{clip-path:url(#clippath);}.cls-3{fill:#100f0d;}</style><clipPath id="clippath"><rect class="cls-1" x="0" width="91.89" height="91.89"/></clipPath></defs><g class="cls-2"><path class="cls-3" d="M90.16,41.85L50.04,1.74c-2.31-2.31-6.05-2.31-8.36,0h0l-8.33,8.34,10.57,10.57c2.53-.86,5.34-.21,7.23,1.68,1.9,1.91,2.55,4.73,1.67,7.28l10.18,10.18c2.55-.88,5.37-.24,7.28,1.67,2.75,2.75,2.75,7.21,0,9.96h0c-2.75,2.75-7.21,2.75-9.96,0-2.01-2.01-2.62-5.03-1.53-7.66l-9.5-9.5v25c3.49,1.72,4.92,5.94,3.19,9.43-.34,.69-.79,1.32-1.33,1.86-2.75,2.75-7.21,2.75-9.96,0h0c-2.75-2.75-2.75-7.21,0-9.96h0c.66-.66,1.44-1.19,2.31-1.54v-25.23c-.86-.35-1.65-.87-2.31-1.53-2.02-2.02-2.62-5.06-1.52-7.7l-10.42-10.42L1.73,41.66c-2.31,2.31-2.31,6.06,0,8.37h0l40.12,40.12c2.31,2.31,6.06,2.31,8.37,0l39.93-39.93c2.31-2.31,2.31-6.06,0-8.37"/></g></svg>